<svg width="223" height="225" viewBox="0 0 223 225" fill="none" xmlns="http://www.w3.org/2000/svg">
<path d="M56.2527 215.912C56.0066 215.924 55.763 215.859 55.5549 215.727C55.3468 215.595 55.1842 215.402 55.0892 215.175C54.9942 214.947 54.9713 214.696 55.0237 214.455C55.0761 214.213 55.2012 213.994 55.382 213.827C55.4123 213.706 55.4341 213.62 55.4644 213.499C55.2289 212.9 54.8201 212.385 54.2905 212.02C53.7608 211.655 53.1344 211.457 52.4916 211.451C51.8487 211.445 51.2187 211.631 50.6823 211.986C50.1458 212.341 49.7274 212.848 49.4807 213.443C48.0569 216.78 46.2142 220.236 47.1307 223.912C41.0775 211.063 43.136 195.081 52.0818 184.093C54.5545 182.729 56.5587 180.305 57.0804 177.491C55.8567 177.906 54.3309 176.909 55.251 175.618C55.6498 175.125 56.0525 174.635 56.4513 174.142C51.8027 169.184 46.2638 176.976 51.3807 183.669C49.7068 185.77 48.2569 188.042 47.0547 190.446C47.3323 187.893 47.0009 185.311 46.0878 182.912C45.1624 180.676 43.4277 178.793 41.9002 176.86C40.0429 174.505 36.2204 175.591 35.9705 178.58C37.6845 179.144 37.9072 181.624 35.9465 181.963C36.4601 187.524 40.0871 192.633 45.0826 195.072C43.2378 200.256 42.5174 205.774 42.9695 211.259C42.0878 204.849 35.2175 203.293 30.4155 200.746C30.1098 200.549 29.7538 200.446 29.3907 200.449C29.0276 200.452 28.6733 200.561 28.3708 200.762C28.0684 200.963 27.8309 201.248 27.6874 201.582C27.5439 201.916 27.5006 202.285 27.5627 202.643C28.2255 202.913 28.8599 203.248 29.4565 203.644C29.7361 203.832 29.9506 204.102 30.0708 204.417C30.191 204.732 30.211 205.077 30.1279 205.404C30.0448 205.731 29.8628 206.024 29.6068 206.244C29.3508 206.463 29.0333 206.598 28.6979 206.629C31.1184 212.629 37.3764 216.658 43.8038 216.635C44.4215 219.323 45.3164 221.94 46.4742 224.443H56.0137C56.0479 224.336 56.0786 224.227 56.1094 224.121C55.2264 224.176 54.3399 224.123 53.4698 223.963C55.8059 221.193 57.6126 219.78 56.253 215.912L56.2527 215.912Z" fill="#F2F2F2"/>
<path d="M141.299 215.912C141.545 215.924 141.789 215.859 141.997 215.727C142.205 215.595 142.368 215.402 142.463 215.175C142.558 214.947 142.581 214.696 142.528 214.455C142.476 214.213 142.351 213.994 142.17 213.827C142.14 213.706 142.118 213.62 142.088 213.499C142.323 212.9 142.732 212.385 143.261 212.02C143.791 211.655 144.417 211.457 145.06 211.451C145.703 211.445 146.333 211.631 146.87 211.986C147.406 212.341 147.824 212.848 148.071 213.443C149.495 216.78 151.338 220.236 150.421 223.912C156.474 211.063 154.416 195.081 145.47 184.093C142.997 182.729 140.993 180.305 140.471 177.491C141.695 177.906 143.221 176.909 142.301 175.618C141.902 175.125 141.499 174.635 141.101 174.142C145.749 169.184 151.288 176.976 146.171 183.669C147.845 185.77 149.295 188.042 150.497 190.446C150.22 187.893 150.551 185.311 151.464 182.912C152.39 180.676 154.124 178.793 155.652 176.86C157.509 174.505 161.331 175.591 161.581 178.58C159.867 179.144 159.645 181.624 161.605 181.963C161.092 187.524 157.465 192.633 152.469 195.072C154.314 200.256 155.034 205.774 154.582 211.259C155.464 204.849 162.334 203.293 167.136 200.746C167.442 200.549 167.798 200.446 168.161 200.449C168.524 200.452 168.879 200.561 169.181 200.762C169.484 200.963 169.721 201.248 169.864 201.582C170.008 201.916 170.051 202.285 169.989 202.643C169.326 202.913 168.692 203.248 168.095 203.644C167.816 203.832 167.601 204.102 167.481 204.417C167.361 204.732 167.341 205.077 167.424 205.404C167.507 205.731 167.689 206.024 167.945 206.244C168.201 206.463 168.519 206.598 168.854 206.629C166.433 212.629 160.175 216.658 153.748 216.635C153.13 219.323 152.235 221.94 151.078 224.443H141.538C141.504 224.336 141.473 224.227 141.442 224.121C142.325 224.176 143.212 224.123 144.082 223.963C141.746 221.193 139.939 219.78 141.299 215.912L141.299 215.912Z" fill="#F2F2F2"/>
<path d="M144.836 217.331L140.728 218.267L135.167 202.842L141.231 201.461L144.836 217.331Z" fill="#FFB6B6"/>
<path d="M145.956 221.59L133.323 224.469L133.287 224.309C132.99 223.003 133.223 221.632 133.936 220.498C134.648 219.365 135.781 218.561 137.085 218.263L137.085 218.263L138.994 215.984L143.698 216.756L144.801 216.505L145.956 221.59Z" fill="#2F2E41"/>
<path d="M211.109 142.146L213.367 145.707L200.723 156.128L197.39 150.87L211.109 142.146Z" fill="#FFB6B6"/>
<path d="M214.739 139.66L221.685 150.614L221.546 150.702C220.417 151.42 219.05 151.659 217.744 151.368C216.439 151.076 215.303 150.277 214.586 149.146L214.586 149.146L211.801 148.109L210.95 143.412L210.344 142.456L214.739 139.66Z" fill="#2F2E41"/>
<path d="M80.1531 104.063L79.1384 98.1724L94.5647 91.196L97.8961 85.2887C97.7886 84.7704 97.8261 84.2323 98.0047 83.734C98.1833 83.2356 98.4959 82.7964 98.9081 82.4649C99.3203 82.1334 99.8159 81.9224 100.34 81.8552C100.865 81.7881 101.397 81.8674 101.88 82.0844C102.362 82.3015 102.775 82.6478 103.073 83.0851C103.371 83.5224 103.542 84.0337 103.568 84.5625C103.594 85.0913 103.474 85.617 103.22 86.0816C102.967 86.5462 102.59 86.9316 102.132 87.1952L96.6514 95.6807L80.1531 104.063Z" fill="#A0616A"/>
<path d="M75.4639 99.2476L82.4107 95.6936L84.2497 102.609L79.4244 106.191L75.4639 99.2476Z" fill="#6C63FF"/>
<path d="M59.8753 216.795L64.0755 216.795L66.0737 200.569L59.8743 200.569L59.8753 216.795Z" fill="#A0616A"/>
<path d="M65.4734 217.174V214.322L64.3692 214.39L59.8741 214.656L58.8338 214.72L58.0385 224.272L57.9958 224.784H60.9783L61.0742 224.275L61.5074 221.964L62.6258 224.275L62.8708 224.784H70.778C71.2486 224.781 71.6989 224.592 72.0313 224.258C72.3637 223.925 72.5513 223.473 72.5533 223.002C72.8871 221.441 66.3114 218.066 65.4734 217.174Z" fill="#2F2E41"/>
<path d="M10.0153 152.4L9.03613 156.491L24.3253 162.221L25.7703 156.183L10.0153 152.4Z" fill="#A0616A"/>
<path d="M8.67478 157.764L11.4439 158.429L11.6357 157.338L12.4249 152.898L12.6053 151.87L3.51665 148.868L3.02938 148.707L2.33398 151.612L2.80537 151.824L4.94865 152.785L2.44359 153.335L1.89273 153.455L0.049089 161.156C-0.0577238 161.615 0.0205487 162.098 0.266925 162.499C0.513302 162.901 0.90788 163.189 1.36497 163.3C2.80291 163.989 7.61277 158.372 8.67478 157.764Z" fill="#2F2E41"/>
<path d="M66.3699 111.78L60.9633 109.249L50.1816 122.317L43.6142 123.98C43.1432 123.74 42.6151 123.635 42.088 123.676C41.561 123.717 41.0556 123.904 40.6277 124.215C40.1999 124.526 39.8661 124.949 39.6634 125.438C39.4606 125.927 39.3968 126.462 39.4789 126.985C39.561 127.508 39.7858 127.999 40.1286 128.402C40.4714 128.805 40.9187 129.105 41.4212 129.269C41.9237 129.434 42.4618 129.456 42.9761 129.333C43.4904 129.211 43.9608 128.948 44.3354 128.575L53.9521 125.514L66.3699 111.78Z" fill="#A0616A"/>
<path d="M143.02 63.4058C141.874 63.4058 140.754 63.0654 139.801 62.4277C138.848 61.7901 138.105 60.8837 137.667 59.8233C137.228 58.7629 137.113 57.5961 137.337 56.4704C137.561 55.3447 138.112 54.3106 138.923 53.499C139.733 52.6874 140.766 52.1347 141.89 51.9108C143.014 51.6869 144.179 51.8018 145.237 52.2411C146.296 52.6803 147.201 53.4241 147.838 54.3784C148.475 55.3328 148.814 56.4548 148.814 57.6025C148.813 59.1411 148.202 60.6162 147.115 61.7041C146.029 62.7921 144.556 63.404 143.02 63.4058V63.4058ZM143.02 52.4653C142.005 52.4653 141.014 52.7666 140.17 53.3311C139.327 53.8956 138.669 54.6979 138.281 55.6366C137.893 56.5753 137.791 57.6082 137.989 58.6048C138.187 59.6013 138.676 60.5167 139.393 61.2351C140.11 61.9536 141.024 62.4428 142.019 62.6411C143.014 62.8393 144.046 62.7376 144.983 62.3487C145.92 61.9599 146.721 61.3014 147.285 60.4566C147.849 59.6118 148.149 58.6186 148.149 57.6025C148.148 56.2405 147.607 54.9347 146.645 53.9717C145.684 53.0086 144.38 52.4668 143.02 52.4653V52.4653Z" fill="#E6E6E6"/>
<path d="M142.611 59.7886C142.6 59.7886 142.588 59.7882 142.576 59.7876C142.473 59.7827 142.373 59.7555 142.281 59.7079C142.19 59.6604 142.11 59.5936 142.047 59.5121L141.134 58.3368C141.076 58.2627 141.034 58.1778 141.009 58.0872C140.984 57.9966 140.977 57.9019 140.989 57.8086C141.001 57.7154 141.03 57.6253 141.077 57.5436C141.123 57.4619 141.185 57.3901 141.259 57.3324L141.292 57.3068C141.366 57.2491 141.451 57.2065 141.541 57.1815C141.632 57.1566 141.727 57.1497 141.82 57.1614C141.913 57.1731 142.003 57.203 142.084 57.2495C142.166 57.296 142.238 57.3581 142.295 57.4324C142.341 57.4916 142.4 57.5403 142.466 57.5749C142.533 57.6095 142.606 57.6293 142.681 57.633C142.756 57.6366 142.831 57.624 142.901 57.5961C142.97 57.5681 143.033 57.5254 143.085 57.4709L144.938 55.5113C145.068 55.3737 145.248 55.2935 145.437 55.2884C145.627 55.2832 145.811 55.3535 145.948 55.4838L145.979 55.5128C146.047 55.5775 146.102 55.6549 146.14 55.7407C146.178 55.8266 146.199 55.9191 146.202 56.0131C146.204 56.107 146.188 56.2006 146.155 56.2884C146.121 56.3761 146.07 56.4564 146.006 56.5246L143.13 59.565C143.063 59.6357 142.983 59.6919 142.894 59.7303C142.804 59.7688 142.708 59.7886 142.611 59.7886Z" fill="#E6E6E6"/>
<path d="M114.094 133.666C112.948 133.666 111.828 133.326 110.875 132.688C109.922 132.05 109.179 131.144 108.741 130.084C108.302 129.023 108.188 127.856 108.411 126.731C108.635 125.605 109.187 124.571 109.997 123.759C110.807 122.948 111.84 122.395 112.964 122.171C114.088 121.947 115.253 122.062 116.312 122.501C117.37 122.941 118.275 123.684 118.912 124.639C119.549 125.593 119.889 126.715 119.889 127.863C119.887 129.401 119.276 130.876 118.19 131.964C117.103 133.052 115.63 133.664 114.094 133.666V133.666ZM114.094 122.726C113.08 122.726 112.088 123.027 111.244 123.591C110.401 124.156 109.743 124.958 109.355 125.897C108.967 126.836 108.865 127.868 109.063 128.865C109.261 129.862 109.75 130.777 110.467 131.495C111.185 132.214 112.099 132.703 113.094 132.901C114.089 133.1 115.12 132.998 116.057 132.609C116.994 132.22 117.796 131.562 118.359 130.717C118.923 129.872 119.224 128.879 119.224 127.863C119.222 126.501 118.681 125.195 117.72 124.232C116.758 123.269 115.454 122.727 114.094 122.726V122.726Z" fill="#E6E6E6"/>
<path d="M113.685 130.049C113.674 130.049 113.662 130.048 113.65 130.048C113.547 130.043 113.447 130.016 113.355 129.968C113.264 129.921 113.184 129.854 113.121 129.772L112.208 128.597C112.15 128.523 112.108 128.438 112.083 128.347C112.058 128.257 112.051 128.162 112.063 128.069C112.075 127.976 112.104 127.886 112.151 127.804C112.197 127.722 112.259 127.65 112.333 127.593L112.366 127.567C112.44 127.509 112.525 127.467 112.615 127.442C112.706 127.417 112.8 127.41 112.894 127.422C112.987 127.433 113.077 127.463 113.158 127.51C113.24 127.556 113.312 127.618 113.369 127.693C113.415 127.752 113.474 127.801 113.54 127.835C113.607 127.87 113.68 127.89 113.755 127.893C113.83 127.897 113.905 127.884 113.974 127.856C114.044 127.828 114.107 127.786 114.159 127.731L116.012 125.772C116.142 125.634 116.322 125.554 116.511 125.549C116.701 125.543 116.885 125.614 117.022 125.744L117.053 125.773C117.121 125.838 117.176 125.915 117.214 126.001C117.252 126.087 117.273 126.179 117.276 126.273C117.278 126.367 117.262 126.461 117.229 126.549C117.195 126.636 117.144 126.717 117.08 126.785L114.204 129.825C114.137 129.896 114.057 129.952 113.968 129.991C113.878 130.029 113.782 130.049 113.685 130.049Z" fill="#E6E6E6"/>
<path d="M50.5901 55.4141C49.444 55.4141 48.3238 55.0737 47.3709 54.436C46.418 53.7984 45.6753 52.892 45.2367 51.8316C44.7982 50.7712 44.6834 49.6044 44.907 48.4787C45.1306 47.353 45.6824 46.3189 46.4928 45.5073C47.3032 44.6958 48.3356 44.143 49.4596 43.9191C50.5836 43.6952 51.7487 43.8101 52.8075 44.2494C53.8663 44.6886 54.7713 45.4324 55.408 46.3867C56.0447 47.3411 56.3845 48.4631 56.3845 49.6108C56.3828 51.1494 55.7717 52.6245 54.6855 53.7124C53.5992 54.8004 52.1263 55.4123 50.5901 55.4141ZM50.5901 44.4736C49.5756 44.4736 48.5838 44.7749 47.7403 45.3394C46.8968 45.9039 46.2393 46.7062 45.8511 47.6449C45.4628 48.5836 45.3613 49.6165 45.5592 50.6131C45.7571 51.6096 46.2456 52.525 46.963 53.2434C47.6804 53.9619 48.5943 54.4511 49.5894 54.6494C50.5844 54.8476 51.6157 54.7458 52.553 54.357C53.4903 53.9682 54.2914 53.3097 54.8551 52.4649C55.4187 51.6201 55.7195 50.6269 55.7195 49.6108C55.718 48.2488 55.1771 46.9431 54.2154 45.98C53.2538 45.0169 51.95 44.4751 50.5901 44.4736V44.4736Z" fill="#E6E6E6"/>
<path d="M50.1811 51.7969C50.1694 51.7969 50.1578 51.7965 50.1461 51.7959C50.0432 51.791 49.9427 51.7638 49.8513 51.7162C49.7599 51.6687 49.6799 51.6019 49.6167 51.5204L48.7039 50.3451C48.6462 50.271 48.6037 50.1861 48.5788 50.0955C48.5539 50.0049 48.5471 49.9102 48.5587 49.8169C48.5704 49.7237 48.6002 49.6336 48.6466 49.5519C48.693 49.4702 48.755 49.3984 48.8291 49.3407L48.862 49.3151C48.936 49.2574 49.0208 49.2148 49.1113 49.1898C49.2018 49.1649 49.2963 49.158 49.3895 49.1697C49.4826 49.1813 49.5726 49.2113 49.6542 49.2578C49.7358 49.3043 49.8075 49.3664 49.8651 49.4407C49.9112 49.4999 49.9695 49.5486 50.0361 49.5832C50.1027 49.6178 50.176 49.6376 50.2509 49.6413C50.3259 49.6449 50.4007 49.6323 50.4703 49.6044C50.54 49.5764 50.6028 49.5337 50.6544 49.4792L52.5077 47.5196C52.6382 47.382 52.8178 47.3018 53.0072 47.2967C53.1966 47.2915 53.3803 47.3618 53.5181 47.4921L53.5485 47.5211C53.6166 47.5857 53.6714 47.6632 53.7096 47.749C53.7479 47.8349 53.7689 47.9274 53.7714 48.0214C53.7739 48.1153 53.758 48.2089 53.7244 48.2967C53.6908 48.3844 53.6403 48.4647 53.5757 48.5329L50.6996 51.5733C50.6329 51.644 50.5525 51.7002 50.4634 51.7386C50.3742 51.7771 50.2781 51.7969 50.1811 51.7969Z" fill="#E6E6E6"/>
<path d="M96.9801 155.243C83.5436 155.243 68.1017 140.31 54.4394 147.405C13.0736 168.887 18.7678 132.94 6.88379 119.571L7.27394 118.787C20.3866 130.563 36.7582 140.143 54.619 146.493C70.7595 152.232 87.0211 154.891 101.64 154.189L101.665 155.132C100.121 155.206 98.5596 155.243 96.9801 155.243Z" fill="#F2F2F2"/>
<path d="M78.5486 54.2779C80.0997 54.2779 81.3572 52.5892 81.3572 50.506C81.3572 48.4229 80.0997 46.7341 78.5486 46.7341C76.9974 46.7341 75.74 48.4229 75.74 50.506C75.74 52.5892 76.9974 54.2779 78.5486 54.2779Z" fill="#E6E6E6"/>
<path d="M110.988 113.12C109.704 113.977 108.39 111.938 109.698 111.119C110.982 110.262 112.296 112.302 110.988 113.12Z" fill="#E6E6E6"/>
<path d="M103.597 44.4637C105.617 44.4637 107.254 42.8237 107.254 40.8008C107.254 38.7779 105.617 37.1379 103.597 37.1379C101.577 37.1379 99.9397 38.7779 99.9397 40.8008C99.9397 42.8237 101.577 44.4637 103.597 44.4637Z" fill="#FF6584"/>
<path opacity="0.3" d="M116.389 60.8731L137.2 0L114.348 60.1444C114.235 60.2871 114.158 60.4548 114.122 60.6335C114.087 60.8122 114.094 60.9968 114.145 61.172C114.195 61.3471 114.286 61.5078 114.41 61.6406C114.535 61.7735 114.689 61.8747 114.86 61.9359C115.032 61.997 115.215 62.0164 115.395 61.9924C115.576 61.9684 115.748 61.9017 115.897 61.7978C116.047 61.6939 116.169 61.5558 116.255 61.395C116.34 61.2341 116.386 61.0552 116.389 60.8731H116.389Z" fill="#F0F0F0"/>
<path d="M95.3826 135.034C97.3478 135.034 98.9409 133.439 98.9409 131.47C98.9409 129.502 97.3478 127.907 95.3826 127.907C93.4173 127.907 91.8242 129.502 91.8242 131.47C91.8242 133.439 93.4173 135.034 95.3826 135.034Z" fill="#F2F2F2"/>
<path d="M60.9193 132.83C60.9193 132.83 52.0485 138.615 54.3941 142.459C54.475 142.592 43.798 156.715 43.798 156.715L23.6423 155.433L22.9321 162.19L40.8762 167.394C40.8762 167.394 45.266 170.625 48.6572 167.066C52.0485 163.507 63.3443 152.609 63.3443 152.609L63.8892 174.612L58.2187 205.101L66.6854 204.563L74.9261 173.975L77.9679 139.326L60.9193 132.83Z" fill="#2F2E41"/>
<path d="M67.238 98.1096L63.5077 100.941L59.2558 110.029L63.3443 115.59C63.3443 115.59 66.7835 121.56 61.2786 127.341C55.7738 133.122 51.5466 139.296 55.9527 139.076C60.3588 138.855 78.2041 147.945 78.3215 140.498C78.4389 133.051 78.6766 127.341 78.6766 127.341L83.3552 115.456C83.3552 115.456 86.1426 108.366 84.1856 106.244C82.2286 104.122 79.6082 101.41 79.6082 101.41L74.8431 96.6375H70.5405L67.238 98.1096Z" fill="#6C63FF"/>
<path d="M74.2015 80.6473C82.5702 85.4167 75.6999 98.0007 67.1752 93.5196C58.8067 88.7504 65.6771 76.1664 74.2015 80.6473Z" fill="#A0616A"/>
<path d="M78.6766 83.2919C78.0902 84.0557 76.8651 83.6976 74.4659 84.2426C74.4712 83.4282 74.3772 82.6161 74.1862 81.8245C74.0077 82.8047 73.6165 83.7337 73.0402 84.5459C70.957 84.7773 73.5107 91.1156 72.4441 95.7758C71.0698 85.9443 68.1792 88.5201 69.6395 90.4701C70.5743 91.7185 69.9511 95.4637 67.1465 93.5911C62.519 95.7937 55.9281 84.8524 63.2328 79.7211C63.1023 76.9475 66.1838 76.5093 68.0814 77.3621C72.6864 73.9264 77.9477 78.3287 78.6766 83.2919Z" fill="#2F2E41"/>
<path d="M57.2041 76.1179C55.341 87.5908 45.3544 74.0079 40.6588 85.2984C39.1824 89.3872 41.7155 92.3121 43.3178 95.706C43.6835 98.4951 40.0605 99.9102 39.6811 102.478C39.5754 108.364 49.057 108.003 51.7077 104.29C54.4312 100.402 51.1789 95.1868 52.816 91.0141C55.1168 85.221 64.474 85.178 65.2892 78.4382C63.7104 76.1866 59.4653 73.6078 57.2041 76.1179Z" fill="#2F2E41"/>
<path d="M64.7519 77.239C64.691 77.2647 64.63 77.2904 64.5755 77.3193H64.5723C64.5209 77.345 64.4696 77.3707 64.4183 77.3996C64.4119 77.4028 64.4087 77.4061 64.4022 77.4093C64.3349 77.345 64.2675 77.2807 64.1969 77.2165C64.1787 77.3211 64.183 77.4285 64.2097 77.5313L64.2194 77.5699C64.2836 77.6374 64.3509 77.7016 64.4215 77.7691C64.4857 77.7209 64.5466 77.6695 64.6108 77.6213C64.6493 77.5892 64.6878 77.557 64.7295 77.5249C64.7359 77.4414 64.7455 77.345 64.7551 77.239L64.7519 77.239ZM66.6832 73.6662C65.2524 73.3385 64.7904 75.2116 64.6525 76.1144C64.1327 72.8373 61.9705 73.8686 62.718 76.1048C62.9563 76.7669 63.3312 77.3712 63.8184 77.8783C63.8857 77.9554 63.9595 78.0326 64.0365 78.1097C63.9499 78.5595 64.3862 78.4438 64.9765 78.0294C65.4123 77.7189 65.8154 77.3647 66.1795 76.9723C67.3569 75.7353 68.2744 74.0807 66.6832 73.6662V73.6662ZM66.7281 75.5104C66.2867 76.0805 65.7914 76.6066 65.2492 77.0816C65.0791 77.2358 64.9059 77.3836 64.7295 77.5249C64.7263 77.5538 64.7263 77.5795 64.723 77.602C64.7107 77.6333 64.6956 77.6633 64.6781 77.692C64.4985 78.0165 64.2964 77.8398 64.2194 77.5699C64.213 77.5603 64.2033 77.5506 64.1969 77.541C63.9406 77.2758 63.7175 76.9801 63.5329 76.6607C62.2079 74.3602 64.3413 72.7955 64.2354 77.0912C64.2159 77.1306 64.2029 77.1729 64.1969 77.2165C64.1787 77.3211 64.183 77.4285 64.2097 77.5314L64.2194 77.5699C64.2836 77.6374 64.3509 77.7016 64.4215 77.7691C64.4857 77.7209 64.5466 77.6695 64.6108 77.6213C64.6493 77.5892 64.6878 77.5571 64.7295 77.5249C64.7359 77.4414 64.7455 77.345 64.7551 77.239V77.2358C64.8385 76.3747 65.0663 74.8261 65.4866 74.4052C66.4105 73.6951 67.6071 74.463 66.7281 75.5104V75.5104ZM64.7519 77.239C64.691 77.2647 64.63 77.2904 64.5755 77.3193H64.5723C64.5209 77.345 64.4696 77.3707 64.4183 77.3996C64.4119 77.4028 64.4087 77.4061 64.4022 77.4093C64.3349 77.345 64.2675 77.2807 64.1969 77.2165C64.1787 77.3211 64.183 77.4285 64.2097 77.5313L64.2194 77.5699C64.2836 77.6374 64.3509 77.7016 64.4215 77.7691C64.4857 77.7209 64.5466 77.6695 64.6108 77.6213C64.6493 77.5892 64.6878 77.557 64.7295 77.5249C64.7359 77.4414 64.7455 77.345 64.7551 77.239L64.7519 77.239Z" fill="#2F2E41"/>
<path d="M142.102 140.493L139.011 148.566L124.512 177.21L137.252 210.531L143.827 208.792L138.408 177.21L153.956 158.289L172.421 170.832C172.421 170.832 180.61 177.235 183.725 171.165C186.841 165.095 206.999 152.185 206.999 152.185L202.012 146.857L178.798 157.737L162.776 135.151L142.102 140.493Z" fill="#2F2E41"/>
<path d="M157.697 102.415L152.609 96.9401L143.882 95.7375L133.188 103.235L133.295 111.534L138.582 131.09C138.582 131.09 136.568 145.141 142.193 145C147.817 144.859 150.883 142.05 153.173 142.622C155.464 143.194 165.202 145.627 165.819 143.078C166.436 140.53 169.716 142.355 169.572 139.944C169.428 137.533 160.692 120.155 160.692 120.155L162.864 102.776L157.697 102.415Z" fill="#6C63FF"/>
<path d="M189.912 77.2139C189.957 77.6679 189.903 78.1264 189.752 78.5571C189.602 78.9877 189.359 79.3801 189.041 79.7066C188.722 80.033 188.336 80.2856 187.91 80.4465C187.484 80.6074 187.027 80.6727 186.573 80.6379L174.873 102.924L171.731 98.0941L183.691 77.0612C183.8 76.3008 184.183 75.6068 184.769 75.1108C185.355 74.6148 186.102 74.3513 186.869 74.3701C187.636 74.3889 188.369 74.6888 188.93 75.2129C189.491 75.7371 189.84 76.449 189.912 77.2139V77.2139Z" fill="#FFB6B6"/>
<path d="M153.078 106.558C153.078 106.558 152.614 110.523 157.07 111.504C161.526 112.485 173.871 105.421 175.895 104.342C176.529 104.004 177.389 102.347 178.271 100.232C178.667 99.2819 179.068 98.2394 179.454 97.182C179.678 96.5701 180.75 96.4031 180.961 95.7963C181.17 95.1928 180.52 94.1494 180.709 93.5806C181.611 90.8808 182.25 88.7389 182.25 88.7389L179.296 83.1829C175.166 85.3698 173.047 90.1871 171.489 95.7369L153.078 106.558Z" fill="#6C63FF"/>
<path d="M101.038 82.3318C101.107 82.7828 101.275 83.213 101.528 83.5923C101.781 83.9715 102.115 84.2905 102.504 84.5267C102.894 84.763 103.331 84.9108 103.784 84.9598C104.237 85.0087 104.695 84.9576 105.126 84.81L122.023 103.454L123.857 97.9908L107.023 80.6247C106.727 79.9158 106.183 79.3401 105.491 79.0067C104.8 78.6733 104.011 78.6054 103.273 78.8158C102.536 79.0262 101.901 79.5004 101.489 80.1484C101.077 80.7964 100.916 81.5733 101.038 82.3318V82.3318Z" fill="#FFB6B6"/>
<path d="M144.032 101.51C144.032 101.51 145.472 105.232 141.403 107.299C137.334 109.366 123.616 105.62 121.387 105.083C120.689 104.915 119.443 103.527 118.06 101.699C117.439 100.879 116.791 99.9701 116.152 99.0433C115.783 98.507 114.703 98.6138 114.348 98.0792C113.994 97.5474 114.363 96.3741 114.037 95.871C112.49 93.4831 111.336 91.5694 111.336 91.5694L112.807 85.45C117.353 86.5321 120.608 90.665 123.503 95.6478L144.032 101.51Z" fill="#6C63FF"/>
<path d="M148.42 94.3449C153.006 94.3449 156.724 90.6213 156.724 86.0281C156.724 81.4349 153.006 77.7114 148.42 77.7114C143.833 77.7114 140.115 81.4349 140.115 86.0281C140.115 90.6213 143.833 94.3449 148.42 94.3449Z" fill="#FFB6B6"/>
<path d="M157.899 81.2661C157.025 79.9127 155.386 79.0107 153.797 79.2641C153.649 78.2485 153.226 77.2929 152.573 76.5015C151.921 75.7101 151.064 75.1131 150.096 74.7757C149.128 74.4383 148.086 74.3732 147.084 74.5877C146.082 74.8022 145.157 75.2879 144.412 75.992C144.167 75.8191 143.881 75.7126 143.582 75.6826C143.284 75.6527 142.983 75.7005 142.708 75.8213C142.161 76.0704 141.686 76.4529 141.325 76.9338C140.413 78.0726 139.826 79.4378 139.628 80.884C139.429 82.3301 139.626 83.8032 140.197 85.1463C140.002 84.4392 140.71 83.774 141.425 83.6153C142.14 83.4567 142.89 83.6068 143.615 83.5034C144.544 83.371 145.379 82.8312 146.31 82.7097C147.099 82.6583 147.89 82.7602 148.641 83.0097C149.391 83.2593 150.182 83.3656 150.971 83.3232C151.754 83.23 152.763 86.2028 152.75 88.2966C152.747 88.6934 152.829 89.2029 153.216 89.2871C153.693 89.3907 153.969 88.7316 154.423 88.552C154.632 88.492 154.856 88.5156 155.049 88.6179C155.241 88.7203 155.386 88.8933 155.453 89.1005C155.51 89.3112 155.516 89.5326 155.471 89.7461C155.425 89.9596 155.33 90.1592 155.192 90.3282C154.913 90.6633 154.581 90.951 154.211 91.1803L154.398 91.336C154.575 91.5237 154.812 91.6438 155.068 91.6757C155.325 91.7076 155.584 91.6492 155.802 91.5107C156.23 91.22 156.577 90.8242 156.81 90.3611C157.686 89.0045 158.312 87.5016 158.659 85.9238C158.951 84.3392 158.772 82.6195 157.899 81.2661Z" fill="#2F2E41"/>
<path d="M219.332 114.068C208.621 122.193 187.309 119.626 180.695 133.543C160.671 175.681 143.539 143.582 126.006 140.111L125.845 139.25C143.396 140.708 162.223 138.446 180.289 132.708C196.615 127.523 211.181 119.809 222.412 110.41L223 111.146C221.814 112.139 220.592 113.113 219.332 114.068Z" fill="#F2F2F2"/>
<path d="M174.046 224.432C173.791 225.189 28.1395 225.189 27.8643 224.434C28.119 223.675 173.771 223.675 174.046 224.432Z" fill="#CCCCCC"/>
</svg>
